<?xml version="1.0" encoding="UTF-8" standalone="no"?>
<!-- Created with Inkscape (http://www.inkscape.org/) -->

<svg
   width="210mm"
   height="297mm"
   viewBox="0 0 793.70081 1122.5197"
   version="1.1"
   id="svg1"
   xml:space="preserve"
   inkscape:version="1.3.2 (091e20e, 2023-11-25)"
   sodipodi:docname="logo-kecerdasan-komputasional.svg"
   xmlns:inkscape="http://www.inkscape.org/namespaces/inkscape"
   xmlns:sodipodi="http://sodipodi.sourceforge.net/DTD/sodipodi-0.dtd"
   xmlns:xlink="http://www.w3.org/1999/xlink"
   xmlns="http://www.w3.org/2000/svg"
   xmlns:svg="http://www.w3.org/2000/svg"><sodipodi:namedview
     id="namedview1"
     pagecolor="#505050"
     bordercolor="#ffffff"
     borderopacity="1"
     inkscape:showpageshadow="0"
     inkscape:pageopacity="0"
     inkscape:pagecheckerboard="1"
     inkscape:deskcolor="#505050"
     inkscape:document-units="mm"
     inkscape:zoom="1.2169556"
     inkscape:cx="370.18605"
     inkscape:cy="519.73958"
     inkscape:window-width="1272"
     inkscape:window-height="708"
     inkscape:window-x="172"
     inkscape:window-y="0"
     inkscape:window-maximized="0"
     inkscape:current-layer="layer1" /><defs
     id="defs1"><linearGradient
       id="linearGradient1453"
       inkscape:collect="always"><stop
         style="stop-color:#1064bc;stop-opacity:1"
         offset="0"
         id="stop1453" /><stop
         style="stop-color:#2b9efe;stop-opacity:1"
         offset="1"
         id="stop1454" /></linearGradient><linearGradient
       inkscape:collect="always"
       xlink:href="#linearGradient1453"
       id="linearGradient1455"
       gradientUnits="userSpaceOnUse"
       x1="335.43234"
       y1="560.21106"
       x2="401.98358"
       y2="513.38177" /></defs><g
     inkscape:label="Layer 1"
     inkscape:groupmode="layer"
     id="layer1"><g
       id="g1478"
       inkscape:export-filename="logo-bidang-kecerdasan-komputasional.webp"
       inkscape:export-xdpi="150"
       inkscape:export-ydpi="150"><path
         style="opacity:1;fill:#2389ed;stroke:#9eb39e;stroke-width:0;stroke-linecap:round;stroke-linejoin:bevel;stroke-dasharray:2.32161, 6.96483;fill-opacity:0.99215686"
         d="m 368.52922,628.36482 c 0,0 8.36105,-6.64596 21.65297,-5.35964 0,0 16.5077,-48.87996 49.30873,-49.73751 0,0 -16.72209,1.07193 -28.29892,-4.71648 0,0 -45.44979,44.37784 -42.66278,59.81363 z"
         id="path1423" /><path
         id="path1424"
         style="opacity:1;fill:#0d64c0;fill-opacity:1;stroke:#9eb39e;stroke-width:0;stroke-linecap:round;stroke-linejoin:bevel;stroke-dasharray:2.32161, 6.96483"
         d="M 435.16993 573.79103 C 434.94312 573.78912 434.68833 573.79477 434.44532 573.79689 C 405.67753 579.02481 390.9829 620.7076 390.31642 622.63869 C 392.5145 622.72031 398.74291 623.35082 408.08009 627.63673 C 408.08009 627.63673 423.50085 633.22806 431.98243 628.02345 C 431.98243 628.02345 436.80174 628.21597 428.89845 619.73439 C 428.89845 619.73439 408.65867 590.24096 439.11524 574.04884 C 439.11524 574.04884 437.63119 573.81178 435.16993 573.79103 z " /><path
         id="path1425"
         style="opacity:1;fill:#5dc0ff;fill-opacity:1;stroke:#9eb39e;stroke-width:0;stroke-linecap:round;stroke-linejoin:bevel;stroke-dasharray:2.32161, 6.96483"
         d="M 401.39845 557.41993 C 404.68747 559.05942 415.74024 559.71095 415.74024 559.71095 C 420.5692 560.16015 416.5254 562.7422 416.5254 562.7422 C 413.49326 564.76362 411.02345 568.47072 411.02345 568.47072 L 410.71681 569.02345 C 410.7986 568.94307 411.19142 568.55079 411.19142 568.55079 C 421.32112 573.61565 435.39102 573.42878 438.75001 573.30275 C 437.28171 573.37402 435.84731 573.54211 434.44532 573.79689 C 434.68833 573.79477 434.94312 573.78912 435.16993 573.79103 C 437.63119 573.81178 439.11524 574.04884 439.11524 574.04884 C 438.86606 574.18132 438.62917 574.31695 438.38673 574.45119 C 441.765 574.12331 444.60157 574.31056 444.60157 574.31056 C 449.54283 574.75976 452.79884 573.29884 452.79884 573.29884 C 459.98612 570.2667 455.83204 563.52931 455.83204 563.52931 C 454.82133 561.95709 454.1465 559.59767 454.1465 559.59767 L 401.39845 557.41993 z M 432.44532 574.22267 C 431.7205 574.40014 431.00709 574.60572 430.30079 574.82814 L 430.3047 574.83009 C 431.00981 574.60787 431.72159 574.40022 432.44532 574.22267 z " /><path
         style="opacity:1;fill:#289eff;fill-opacity:1;stroke:#9eb39e;stroke-width:0;stroke-linecap:round;stroke-linejoin:bevel;stroke-dasharray:2.32161, 6.96483"
         d="m 393.28135,556.40876 c 0,0 20.41867,4.88273 60.36824,2.88525 0,0 -1.17545,-4.70255 1.64607,-7.46981 0,0 0.54439,-2.23238 -0.17734,-3.74799 0,0 3.24776,-1.01042 1.08259,-3.68079 0,0 -4.46227,-5.12044 3.47898,-8.04136 0,0 9.94939,-1.91685 10.13195,-8.5802 l -56.74416,-3.45812 c 0,0 -1.11527,8.0857 -1.11527,13.94086 0,0 -10.31623,3.06699 -28.29994,-7.94629 l -6.83103,9.6192 c 0,0 6.15336,10.09549 16.45991,16.47925 z"
         id="path1427" /><path
         style="opacity:1;fill:#1064bc;fill-opacity:1;stroke:#9eb39e;stroke-width:0;stroke-linecap:round;stroke-linejoin:bevel;stroke-dasharray:2.32161, 6.96483"
         d="m 401.05351,518.21028 -0.14626,4.09537 c 0,0 2.63273,5.41173 68.45114,5.41173 0,0 1.31848,-1.6112 -0.93356,-3.13678 0,0 -10.02522,-7.77318 -11.26021,-13.36696 0,0 -35.78635,-0.56136 -56.11111,6.99664 z"
         id="path1428" /><path
         id="path1430"
         style="opacity:1;fill:#2b9efe;fill-opacity:1;stroke:#9eb39e;stroke-width:0;stroke-linecap:round;stroke-linejoin:bevel;stroke-dasharray:2.32161, 6.96483"
         d="M 384.32423 472.21876 C 384.32423 474.13368 388.72852 481.02736 388.72852 481.02736 C 391.40941 481.98482 408.07032 484.85743 408.07032 484.85743 L 408.83595 486.39064 L 409.10157 486.65626 C 409.51143 486.5135 409.91578 486.38289 410.30665 486.28517 C 410.30665 486.28517 435.3241 491.24643 450.88868 491.81251 L 454.31446 491.86915 C 455.60943 491.85358 456.81078 491.7997 457.8672 491.68751 C 457.8672 491.68751 458.01501 491.70751 458.17775 491.93556 L 458.62306 491.94337 C 459.77202 479.3049 455.17775 474.32618 455.17775 474.32618 C 434.30512 472.02828 385.08985 472.98634 385.08985 472.98634 L 384.32423 472.21876 z " /><path
         style="opacity:1;fill:#2288ef;fill-opacity:1;stroke:#9eb39e;stroke-width:0;stroke-linecap:round;stroke-linejoin:bevel;stroke-dasharray:2.32161, 6.96483"
         d="m 440.51223,510.37739 -38.26403,-3.99773 c 0,0 -5.39436,-0.15721 -4.55683,-3.43757 0,0 2.44283,-4.67626 2.72201,-11.58595 0,0 5.66599,-4.01393 9.89353,-5.07081 0,0 34.29011,6.81105 47.55991,5.40186 0,0 1.29175,0 0.46973,5.98903 0,0 -2.58351,8.22023 -1.17432,14.67898 z"
         id="path1429" /><path
         id="path1431"
         style="opacity:1;fill:#56c2ff;fill-opacity:1;stroke:#9eb39e;stroke-width:0;stroke-linecap:round;stroke-linejoin:bevel;stroke-dasharray:2.32161, 6.96483"
         d="M 414.7461 453.21876 C 409.17409 453.17875 392.96391 454.17106 378.56446 465.89845 L 378.01759 471.56251 C 378.01759 471.56251 377.19504 473.9415 385.66993 475.75001 C 384.92015 474.29479 384.32423 472.92073 384.32423 472.21876 L 385.08985 472.98634 C 385.08985 472.98634 433.70621 472.04221 454.78321 474.28907 C 453.13757 471.53642 442.22957 454.96731 416.75001 453.29103 C 416.75001 453.29103 416.03195 453.22799 414.7461 453.21876 z " /><path
         id="path1432"
         style="fill:url(#linearGradient1455);stroke:#9eb39e;stroke-width:0;stroke-linecap:round;stroke-linejoin:bevel;stroke-dasharray:1.53076, 4.59227"
         d="M 371.19532 474.59571 A 2.7647907 2.7647907 0 0 0 368.4297 477.36134 A 2.7647907 2.7647907 0 0 0 368.52931 478.07814 L 358.68556 488.5547 A 3.3988871 3.3988871 0 0 0 357.03321 488.12306 A 3.3988871 3.3988871 0 0 0 353.63477 491.52345 A 3.3988871 3.3988871 0 0 0 354.17384 493.35743 L 344.23243 503.93946 A 3.3988871 3.3988871 0 0 0 342.66016 503.55275 A 3.3988871 3.3988871 0 0 0 339.26173 506.95314 A 3.3988871 3.3988871 0 0 0 342.66016 510.35157 A 3.3988871 3.3988871 0 0 0 346.0586 506.95314 A 3.3988871 3.3988871 0 0 0 345.88477 505.88087 L 356.27149 494.82618 A 3.3988871 3.3988871 0 0 0 357.03321 494.92189 A 3.3988871 3.3988871 0 0 0 360.11329 492.959 L 383.17188 492.98048 A 5.5125425 5.5125425 0 0 0 384.76173 495.74611 L 376.98634 510.35548 A 3.3988871 3.3988871 0 0 0 376.47852 510.31642 A 3.3988871 3.3988871 0 0 0 373.08009 513.71681 A 3.3988871 3.3988871 0 0 0 373.97852 516.00978 L 363.15626 536.34181 A 3.3988871 3.3988871 0 0 0 362.96095 536.33595 A 3.3988871 3.3988871 0 0 0 359.79884 538.50978 L 351.1504 538.50978 A 5.5125425 5.5125425 0 0 0 345.83009 534.41212 A 5.5125425 5.5125425 0 0 0 340.31837 539.92579 A 5.5125425 5.5125425 0 0 0 345.83009 545.43751 A 5.5125425 5.5125425 0 0 0 351.10352 541.5254 C 351.1165 541.52573 351.12953 541.52736 351.14259 541.52736 L 360.07618 541.52736 A 3.3988871 3.3988871 0 0 0 360.25977 541.78322 L 350.11524 560.84572 A 3.3988871 3.3988871 0 0 0 349.84766 560.834 A 3.3988871 3.3988871 0 0 0 346.44727 564.23244 A 3.3988871 3.3988871 0 0 0 349.84766 567.63087 A 3.3988871 3.3988871 0 0 0 352.95313 565.60939 L 376.54493 560.93947 A 3.3988871 3.3988871 0 0 0 377.51954 561.959 L 375.61524 582.04103 A 3.3988871 3.3988871 0 0 0 372.86915 585.36915 A 3.3988871 3.3988871 0 0 0 376.26759 588.76759 A 3.3988871 3.3988871 0 0 0 379.66602 585.36915 A 3.3988871 3.3988871 0 0 0 379.60938 584.75783 L 399.21681 570.14064 A 5.0898092 5.0898092 0 0 0 402.0547 571.01369 A 5.0898092 5.0898092 0 0 0 407.14454 565.92384 A 5.0898092 5.0898092 0 0 0 402.0547 560.834 A 5.0898092 5.0898092 0 0 0 396.96485 565.92384 A 5.0898092 5.0898092 0 0 0 397.51563 568.20509 L 378.73634 582.20509 L 380.6211 562.34572 A 3.3988871 3.3988871 0 0 0 382.8379 559.16017 A 3.3988871 3.3988871 0 0 0 379.43751 555.75978 A 3.3988871 3.3988871 0 0 0 379.22462 555.7754 L 366.10938 541.01368 A 3.3988871 3.3988871 0 0 0 366.35938 539.73439 A 3.3988871 3.3988871 0 0 0 365.77931 537.834 L 376.81446 517.09767 A 3.3988871 3.3988871 0 0 0 377.33985 517.00392 L 395.26563 529.81447 A 2.7647907 2.7647907 0 0 0 395.06251 530.83595 A 2.7647907 2.7647907 0 0 0 397.82618 533.60158 A 2.7647907 2.7647907 0 0 0 400.59181 530.83595 A 2.7647907 2.7647907 0 0 0 397.82618 528.07228 A 2.7647907 2.7647907 0 0 0 396.89063 528.2422 L 379.27149 515.65236 A 3.3988871 3.3988871 0 0 0 379.86915 513.94532 L 402.7461 513.94532 A 3.1875218 3.1875218 0 0 0 405.43556 515.42384 A 3.1875218 3.1875218 0 0 0 408.62306 512.23634 A 3.1875218 3.1875218 0 0 0 405.43556 509.04884 A 3.1875218 3.1875218 0 0 0 402.29493 511.72267 L 379.67774 511.72267 L 387.44532 497.12501 A 5.5125425 5.5125425 0 0 0 388.52735 497.24611 A 5.5125425 5.5125425 0 0 0 394.03907 491.73439 A 5.5125425 5.5125425 0 0 0 388.52735 486.22071 A 5.5125425 5.5125425 0 0 0 385.54102 487.09962 L 373.83009 478.18751 A 2.7647907 2.7647907 0 0 0 373.95899 477.36134 A 2.7647907 2.7647907 0 0 0 371.19532 474.59571 z M 372.36329 479.86525 L 383.94337 488.68165 A 5.5125425 5.5125425 0 0 0 383.18165 490.44532 L 360.40626 490.42384 L 370.2461 479.95118 A 2.7647907 2.7647907 0 0 0 371.19532 480.12501 A 2.7647907 2.7647907 0 0 0 372.36329 479.86525 z M 364.62891 542.69533 L 377.08595 556.71681 A 3.3988871 3.3988871 0 0 0 376.32813 557.79493 L 352.74806 562.4629 A 3.3988871 3.3988871 0 0 0 352.70704 562.39845 L 362.96095 543.13283 A 3.3988871 3.3988871 0 0 0 364.62891 542.69533 z " /></g></g></svg>
